<svg xmlns="http://www.w3.org/2000/svg" xmlns:xlink="http://www.w3.org/1999/xlink" width="743" height="402.262" viewBox="0 0 743 402.262">
  <defs>
    <clipPath id="clip-path">
      <rect id="Rectangle_47" data-name="Rectangle 47" width="743" height="402.262" fill="#1f1a17"/>
    </clipPath>
    <clipPath id="clip-path-2">
      <rect id="Rectangle_41" data-name="Rectangle 41" width="118.755" height="17.31" fill="#1f1a17"/>
    </clipPath>
    <clipPath id="clip-path-3">
      <rect id="Rectangle_42" data-name="Rectangle 42" width="140.446" height="285.651" fill="#1f1a17"/>
    </clipPath>
    <clipPath id="clip-path-4">
      <rect id="Rectangle_44" data-name="Rectangle 44" width="527.19" height="17.31" fill="#1f1a17"/>
    </clipPath>
    <clipPath id="clip-path-5">
      <rect id="Rectangle_45" data-name="Rectangle 45" width="526.928" height="78.239" fill="#1f1a17"/>
    </clipPath>
    <clipPath id="clip-path-6">
      <rect id="Rectangle_46" data-name="Rectangle 46" width="109.213" height="247.314" fill="#1f1a17"/>
    </clipPath>
  </defs>
  <g id="Group_115" data-name="Group 115" opacity="0.075" style="mix-blend-mode: multiply;isolation: isolate">
    <g id="Group_47" data-name="Group 47" clip-path="url(#clip-path)">
      <g id="Group_34" data-name="Group 34" transform="translate(0 384.952)" style="mix-blend-mode: normal;isolation: isolate">
        <g id="Group_33" data-name="Group 33">
          <g id="Group_32" data-name="Group 32" clip-path="url(#clip-path-2)">
            <rect id="Rectangle_40" data-name="Rectangle 40" width="118.756" height="17.31" transform="translate(0 0)" fill="#1f1a17"/>
          </g>
        </g>
      </g>
      <g id="Group_37" data-name="Group 37" transform="translate(0 89.329)" style="mix-blend-mode: normal;isolation: isolate">
        <g id="Group_36" data-name="Group 36">
          <g id="Group_35" data-name="Group 35" clip-path="url(#clip-path-3)">
            <path id="Path_10" data-name="Path 10" d="M34.6,136.7c-.26,1.3-.521,2.841-.781,4.144-.262,1.279-.521,2.841-.781,4.12-.262,1.564-.521,2.843-.758,4.382a22.447,22.447,0,0,0-.521,4.144c-.262,1.539-.521,3.1-.781,4.382-.262,1.562-.521,3.1-.783,4.4a33.809,33.809,0,0,0-1.017,4.382c-.262,1.539-.521,3.1-.781,4.38-.262,1.564-.521,3.1-.781,4.643-.262,1.562-.521,3.1-.759,4.4-.26,1.8-.52,3.1-.781,4.641a29.8,29.8,0,0,1-1.041,4.641,32.229,32.229,0,0,1-.758,4.665c-.262,1.539-.521,3.079-.783,4.641-.52,3.362-1.041,6.442-1.8,9.8-.262,1.562-.521,3.1-.783,4.641-.52,3.362-1.041,6.725-1.8,10.087-.262,1.539-.521,3.339-.781,4.9a37.038,37.038,0,0,1-1.043,5.163c-.26,1.539-.521,3.362-.781,4.9-.238,1.8-.5,3.622-.758,5.161a39.635,39.635,0,0,0-1.043,5.424,39.849,39.849,0,0,1-1.017,5.161c-.521,3.624-1.043,6.963-1.824,10.585-.262,1.8-.521,3.86-.758,5.422a52.263,52.263,0,0,0-1.043,5.684c-.521,1.8-.521,3.6-1.041,5.422-.262,1.8-.521,3.86-.759,5.684a43.181,43.181,0,0,0-1.041,5.659,44.352,44.352,0,0,0-1.043,5.684c-.758,3.884-1.279,7.742-2.06,11.626-.26,2.06-.781,3.86-1.041,5.944a43.121,43.121,0,0,1-1.019,5.92,46.426,46.426,0,0,1-1.043,5.944c-.26,2.06-.5,4.144-.758,6.2A1.509,1.509,0,0,0,0,334.71H5.422a21.825,21.825,0,0,0,4.12,0,22.045,22.045,0,0,0,4.145,0H76.416c2.841,0,5.682,0,8.525-.262a10.914,10.914,0,0,0,4.12,0,21.641,21.641,0,0,0,4.12,0,21.889,21.889,0,0,0,4.144,0h22.213v-1.277c0-2.062.236-4.122.236-5.944a49.292,49.292,0,0,0,.521-6.182c.26-1.824.26-3.882.521-5.944.26-1.822.26-3.882.521-5.682,0-2.06.26-3.884.26-5.944.26-1.8.26-3.6.521-5.684a46.314,46.314,0,0,1,.5-5.682c0-1.8.262-3.6.262-5.66.26-3.622.521-7.246.781-10.845a37.681,37.681,0,0,1,.521-5.422c0-1.824.26-3.624.26-5.684.262-1.562.262-3.362.521-5.163,0-1.8.236-3.362.236-5.161.262-1.8.262-3.624.521-5.422,0-1.564.262-3.364.262-5.163.26-1.564.26-3.364.52-4.9a32.287,32.287,0,0,1,.262-5.161c0-1.824.26-3.362.26-5.163.26-1.564.26-3.1.521-4.926,0-1.539.236-3.337.236-4.9.262-1.539.262-3.079.521-4.9a32.7,32.7,0,0,1,.26-4.9c0-1.539.262-3.1.262-4.641.26-1.562.26-3.1.521-4.665a32.843,32.843,0,0,1,.26-4.9c0-1.54.26-3.079.26-4.641a23.229,23.229,0,0,0,.262-4.382c.26-3.1.5-6.2.758-9.045a27.834,27.834,0,0,0,.26-4.641c.262-1.3.262-2.843.521-4.382,0-1.3.26-2.841.26-4.4.262-1.54.262-2.843.521-4.382a25.993,25.993,0,0,1,.262-4.382,23.631,23.631,0,0,1,.26-4.144c0-1.539.236-2.841.236-4.382.262-1.3.262-2.581.521-4.144a23.213,23.213,0,0,1,.262-4.12,23.238,23.238,0,0,1,.26-4.12,23.634,23.634,0,0,1,.26-4.144c0-1.279.262-2.581.262-3.86.26-1.3.26-2.581.521-4.145a21.185,21.185,0,0,1,.236-3.858c.26-2.581.26-5.424.521-8a19.534,19.534,0,0,0,.26-3.884c.26-1.043.26-2.581.521-3.624a19.282,19.282,0,0,1,.26-3.858A67.7,67.7,0,0,1,137.6,90.5a19.543,19.543,0,0,1,.26-3.884c0-1.017.238-2.32.238-3.6a17.125,17.125,0,0,0,.26-3.622c0-1.3.262-2.581.262-3.624a16.8,16.8,0,0,0,.26-3.6c0-1.3.26-2.345.26-3.624,0-1.041.262-2.32.262-3.622a14.483,14.483,0,0,0,.26-3.339,16.915,16.915,0,0,0,.262-3.624,13.6,13.6,0,0,0,.26-3.362,14.474,14.474,0,0,0,.26-3.339v-.781H127.02c-1.041-.26-2.06,0-3.1-.26H111.272a12.526,12.526,0,0,0-3.1-.262H95.526a12.438,12.438,0,0,1-3.1-.26H76.675a12.516,12.516,0,0,1-3.1-.26H64.03c-2.581,0-5.184,0-8-.262H50.344c-.262,1.3-.521,2.841-.781,4.145-.262,1.017-.262,2.32-.521,3.362-.262,1.277-.521,2.32-.758,3.6-.262,1.041-.262,2.322-.521,3.362a19.82,19.82,0,0,0-.521,3.622c-.26,1.279-.521,2.322-.781,3.6a17.289,17.289,0,0,0-.521,3.622c-.26,1.279-.5,2.322-.758,3.6-.26,1.3-.521,2.581-.781,3.622-.262,1.3-.262,2.581-.521,3.884-.26,1.017-.521,2.322-.781,3.6a21.7,21.7,0,0,0-.5,3.884c-.26,1.279-.521,2.581-.781,3.6-.26,1.562-.521,2.58-.781,3.884-.262,1.277-.262,2.58-.521,3.858-.236,1.3-.5,2.6-.758,3.884-.262,1.3-.521,2.841-.781,3.86a25.572,25.572,0,0,0-.521,4.144,20.212,20.212,0,0,0-.781,3.86c-.238,1.562-.5,2.841-.758,4.144-.262,1.279-.521,2.841-.783,4.122-.26,1.3-.52,2.841-.781,4.144-.26,1.279-.5,2.841-.758,4.12" transform="translate(0 -49.175)" fill="#1f1a17" fill-rule="evenodd"/>
          </g>
        </g>
      </g>
      <g id="Group_40" data-name="Group 40" transform="translate(132.187 384.942)" style="mix-blend-mode: normal;isolation: isolate">
        <g id="Group_39" data-name="Group 39">
          <g id="Group_38" data-name="Group 38" clip-path="url(#clip-path-4)">
            <rect id="Rectangle_43" data-name="Rectangle 43" width="527.189" height="17.31" transform="translate(-0.001 0)" fill="#1f1a17"/>
          </g>
        </g>
      </g>
      <g id="Group_43" data-name="Group 43" transform="translate(133.465 297.161)" style="mix-blend-mode: normal;isolation: isolate">
        <g id="Group_42" data-name="Group 42">
          <g id="Group_41" data-name="Group 41" clip-path="url(#clip-path-5)">
            <path id="Path_11" data-name="Path 11" d="M375.534,165.146h-8a76.607,76.607,0,0,1-7.744-.262h-23.75a77.122,77.122,0,0,1-7.744-.26H296.537a77.078,77.078,0,0,1-7.742-.26c-2.581.26-5.424.26-8.006.26-5.422,0-10.583-.26-16.008-.26h-23.75c-2.843,0-5.424,0-8.265-.262a76.436,76.436,0,0,1-7.742,0H185c-2.841,0-5.422-.26-8.264,0-2.581,0-5.422-.26-8-.26h-40.28c-2.841,0-5.422,0-8.264-.26-2.581.26-5.422.26-8,.26-2.581-.26-5.4-.26-7.98-.26h-26.1v.781c0,.781-.26,1.8-.26,2.581a9.573,9.573,0,0,1-.236,2.581v2.32c0,1.043-.262,1.8-.262,2.841v2.322c0,1.041-.26,1.8-.26,2.841v2.581c0,.781-.26,1.8-.26,2.581a8.677,8.677,0,0,1-.262,2.581v2.579c0,1.043-.26,1.8-.26,2.581,0,1.043-.262,2.062-.262,2.843v2.581a9.624,9.624,0,0,0-.26,2.581V203.6c0,.781-.26,1.8-.26,2.58,0,1.043-.262,2.062-.262,2.843a11.557,11.557,0,0,1-.236,2.841v2.841a8.67,8.67,0,0,1-.262,2.581v2.843a10.444,10.444,0,0,0-.26,2.841c0,1.017-.26,1.8-.26,2.841v2.841c0,.759-.262,1.8-.262,2.841v2.819a10.629,10.629,0,0,0-.26,2.841,11.626,11.626,0,0,0-.26,2.841v1.043h1.8c5.684,0,11.628,0,17.31-.26h43.36c8.785,0,17.31,0,25.833-.262h8.763c11.366.262,22.992,0,34.335,0h76.937c2.841,0,5.684.262,8.525,0h25.314c2.841,0,5.659.262,8.5,0,2.841.262,5.682.262,8.523.262s5.684,0,8.265-.262c2.841,0,5.682.262,8.525.262h42.079c2.841,0,5.684.26,8.525,0,2.841,0,5.682.26,8.264,0h8.5c2.581,0,5.422,0,8.265.26h33.318c2.841,0,5.659.26,8.5,0,2.579.26,5.422.26,8.264.26H508.5a43.623,43.623,0,0,0,8.265,0c2.58,0,5.422.262,8.24,0,2.581,0,5.422,0,8.264.262H549.8c2.581,0,5.422.26,8.265,0h8c2.841.26,5.422.26,8.264.26H600.4a.958.958,0,0,0-.26-.781c-.262-1.043-.781-1.8-1.019-2.841a9.223,9.223,0,0,1-1.041-2.841c-.521-.783-.781-1.8-1.3-2.581a12.472,12.472,0,0,0-1.019-2.843,10.682,10.682,0,0,0-1.041-2.581,13.733,13.733,0,0,0-1.019-2.841c-.26-.781-.781-1.8-1.041-2.841a10.317,10.317,0,0,1-1.043-2.581,12.007,12.007,0,0,1-1.017-2.841,7.473,7.473,0,0,1-1.043-2.581c-.521-.758-.781-1.8-1.279-2.581-.26-1.019-.521-1.8-.781-2.581a12.159,12.159,0,0,1-1.043-2.841,7.026,7.026,0,0,1-1.017-2.581,24.083,24.083,0,0,1-1.043-2.581,10.685,10.685,0,0,1-1.041-2.581c-.238-.758-.758-1.8-1.019-2.581a10.317,10.317,0,0,1-1.041-2.581,26.2,26.2,0,0,1-1.019-2.581,26.439,26.439,0,0,1-1.041-2.579,17.789,17.789,0,0,0-1.043-2.581,8.244,8.244,0,0,0-1.019-2.322c-.26-1.041-.52-1.8-.781-2.581a7.638,7.638,0,0,1-1.041-2.581,8.184,8.184,0,0,1-1.019-2.58,9.11,9.11,0,0,0-1.041-2.322,19.3,19.3,0,0,0-1.019-2.581c-.521-1.041-.781-2.06-1.3-3.1-8-.262-16.267-.262-24.533-.262a77.132,77.132,0,0,1-7.744-.26H515.72c-7.744-.26-15.486-.26-23.23-.26a76.588,76.588,0,0,1-7.744-.262H469.259a77.606,77.606,0,0,1-7.768-.26,76.97,76.97,0,0,1-7.742,0H438a76.612,76.612,0,0,1-7.744-.262H414.772c-2.841,0-5.422,0-8-.236a108.324,108.324,0,0,1-12.385,0Z" transform="translate(-73.471 -163.584)" fill="#1f1a17" fill-rule="evenodd"/>
          </g>
        </g>
      </g>
      <g id="Group_46" data-name="Group 46" transform="translate(138.628 41.843)" style="mix-blend-mode: normal;isolation: isolate">
        <g id="Group_45" data-name="Group 45">
          <g id="Group_44" data-name="Group 44" clip-path="url(#clip-path-6)">
            <path id="Path_12" data-name="Path 12" d="M87.419,96.347a18.279,18.279,0,0,0-.26,3.624,16.675,16.675,0,0,0-.262,3.6,18.27,18.27,0,0,0-.26,3.622,19.168,19.168,0,0,0-.262,3.86,18.271,18.271,0,0,0-.26,3.622,19.543,19.543,0,0,0-.26,3.884c0,1.279-.238,2.322-.238,3.86,0,1.043-.26,2.322-.26,3.624,0,1.279-.26,2.581-.26,3.858a19.4,19.4,0,0,1-.262,3.884c0,2.581-.26,5.422-.521,8a19.3,19.3,0,0,0-.26,3.86,22.209,22.209,0,0,0-.26,4.144c0,1.279-.262,2.843-.262,4.122a22.906,22.906,0,0,0-.236,4.144,20.483,20.483,0,0,0-.262,4.12,22.211,22.211,0,0,0-.26,4.144c-.26,2.819-.521,5.66-.521,8.5a22.212,22.212,0,0,0-.26,4.144,26.132,26.132,0,0,0-.262,4.382,26.443,26.443,0,0,0-.26,4.382,26.567,26.567,0,0,0-.26,4.4c-.262,1.539-.262,3.1-.521,4.382a30.428,30.428,0,0,1-.236,4.641,27.92,27.92,0,0,1-.262,4.665,26.3,26.3,0,0,1-.26,4.38c0,1.539-.262,3.1-.262,4.641a27.972,27.972,0,0,0-.26,4.641,33,33,0,0,0-.26,4.927,27.482,27.482,0,0,0-.262,4.641,32.674,32.674,0,0,0-.26,4.9c-.262,3.362-.5,6.465-.781,9.8a35.476,35.476,0,0,1-.238,4.9c0,1.562-.26,3.362-.26,4.927a35.7,35.7,0,0,0-.262,5.161,32.549,32.549,0,0,0-.26,5.163c-.26,1.539-.26,3.339-.521,5.163v.758a2.354,2.354,0,0,0,1.3.26h53.423a19.251,19.251,0,0,0,3.882,0c1.3,0,2.581.262,3.884.262a48.743,48.743,0,0,1,6.182,0h40.54v-1.019c0-1.562-.262-3.362-.262-5.161v-4.927a34.22,34.22,0,0,1-.26-5.163c0-1.539-.262-3.339-.262-4.9,0-1.539-.26-3.339-.26-4.9v-4.9a31,31,0,0,1-.26-4.9c0-1.564-.262-3.1-.262-4.641,0-1.562-.236-3.1-.236-4.926v-4.641a27.812,27.812,0,0,1-.26-4.641,27.47,27.47,0,0,0-.262-4.639v-4.405a27.691,27.691,0,0,1-.26-4.641c0-1.539-.262-2.843-.262-4.382v-4.4c0-1.54-.26-3.079-.26-4.382,0-1.539-.26-2.841-.26-4.382a24.888,24.888,0,0,0-.262-4.4V175.6a23.377,23.377,0,0,0-.26-4.12V167.34c0-1.279-.262-2.843-.262-4.12,0-1.3-.236-2.843-.236-4.145v-4.12a20.865,20.865,0,0,1-.26-4.144,19.169,19.169,0,0,0-.262-3.86v-8a19.533,19.533,0,0,1-.26-3.884c0-1.279-.262-2.581-.262-3.86v-3.882a19.3,19.3,0,0,1-.26-3.86,18.28,18.28,0,0,0-.26-3.624v-3.858c0-1.043-.262-2.345-.262-3.624v-3.884c0-1.017-.26-2.32-.26-3.6v-3.624a15.726,15.726,0,0,1-.26-3.6V94.027a16.01,16.01,0,0,1-.238-3.362v-3.6a14.789,14.789,0,0,1-.26-3.362c0-2.32-.262-4.641-.262-6.987a14.489,14.489,0,0,0-.26-3.339V70.014a13.61,13.61,0,0,0-.26-3.362V63.289a14.4,14.4,0,0,0-.262-3.339V53.487a13.515,13.515,0,0,1-.26-3.362V47.045a12.539,12.539,0,0,1-.262-3.1v-3.1c-.26-2.062-.26-4.382-.52-6.465v-5.92a12.54,12.54,0,0,1-.262-3.1v-.781c-.236.262-.757,0-1.017,0H163.314a10.629,10.629,0,0,1-2.841-.26h-8.761a12.447,12.447,0,0,1-3.1-.262H136.983a9.712,9.712,0,0,1-2.843-.26H122.276a12.549,12.549,0,0,0-2.841-.238H110.39a10.636,10.636,0,0,1-2.843-.26H98.526a11.452,11.452,0,0,1-2.843-.26H91.539v3.6a12.438,12.438,0,0,1-.26,3.1v3.1a13.655,13.655,0,0,0-.238,3.1c0,1.279-.26,2.06-.26,3.1a13.407,13.407,0,0,1-.26,3.339v3.1c0,1.043-.262,2.06-.262,3.1,0,1.3-.26,2.322-.26,3.362a15.85,15.85,0,0,1-.262,3.362v3.079a63.431,63.431,0,0,0-.52,6.725c0,1.279-.262,2.32-.262,3.362a13.407,13.407,0,0,1-.26,3.339v3.362a18.581,18.581,0,0,0-.236,3.624A14.378,14.378,0,0,0,88.2,82.14a17.023,17.023,0,0,1-.26,3.622v3.622c-.262,1.019-.262,2.322-.521,3.339Z" transform="translate(-76.313 -23.034)" fill="#1f1a17" fill-rule="evenodd"/>
          </g>
        </g>
      </g>
      <path id="Path_13" data-name="Path 13" d="M529.374,300.522H632.642v17.027H534.8Zm-44.141-73.077H470.79c-2.345,0-4.926-.236-7.246-.236h-7.223a69.57,69.57,0,0,1-7.223-.26H434.63c-7.223-.26-14.445-.26-21.69-.26a61.964,61.964,0,0,1-6.963-.262c-9.8,0-19.63-.26-29.174-.26-2.32,0-4.9-.262-7.223-.262H362.1a69.782,69.782,0,0,1-7.246-.26,66.986,66.986,0,0,1-7.223,0H333.184c-2.579,0-4.925-.26-7.506-.26H311.232a71.508,71.508,0,0,0-7.482-.262H296.5a72.014,72.014,0,0,1-7.482-.26,66.981,66.981,0,0,1-7.223,0H267.093c-2.581-.238-4.925-.238-7.506-.238h-7.223c-2.581,0-4.9-.26-7.482-.26H237.66c-4.927,0-9.828,0-14.99-.26h-7.223c-7.482,0-14.965-.262-22.447-.262h-14.73c-2.58,0-5.161-.26-7.482-.26H155.822c-2.345,0-4.927-.26-7.508-.26h-1.279v5.161a5.649,5.649,0,0,1,.262,2.06v2.322a6.487,6.487,0,0,1,.26,2.084v2.32a6.257,6.257,0,0,1,.262,2.062v2.32c.236.781,0,1.562.236,2.32v4.405a7.019,7.019,0,0,1,.26,2.322v2.32c0,.781.262,1.539.262,2.322v2.06c0,1.041.26,1.822.26,2.581v2.32c.262.781,0,1.564.262,2.32v4.665a7.029,7.029,0,0,1,.26,2.322,7.094,7.094,0,0,0,.26,2.322v2.581a7.035,7.035,0,0,0,.262,2.32v2.32a7.165,7.165,0,0,1,.26,2.322v2.581a7.013,7.013,0,0,0,.26,2.32v.783h1.54a41.194,41.194,0,0,0,8,0,79.742,79.742,0,0,0,8,.26h31.494c2.581,0,5.163,0,8,.26h39.5a76.577,76.577,0,0,0,7.742.262h23.752a74.6,74.6,0,0,0,7.744.26h23.49c2.581,0,5.163.26,7.744.26h23.514a76.472,76.472,0,0,0,7.744,0,76.587,76.587,0,0,0,7.742.262H371.9c2.581.236,5.163.236,7.742.236h22.97a76.6,76.6,0,0,0,7.744.262h23.254c7.742.26,15.226.26,22.969.26a77,77,0,0,0,7.744,0c7.744.26,15.226.26,22.969.521h15.25c2.581,0,5.163.26,7.744.26h15.226a71.348,71.348,0,0,0,7.482,0,74.061,74.061,0,0,0,7.482.262h7.744a72.022,72.022,0,0,0,7.482.26h15.25c2.322,0,4.9.26,7.484.26h22.709a69.078,69.078,0,0,0,7.482.262h24.011c-.26,0-.26-.262-.5-.521a27.53,27.53,0,0,0-2.343-4.9c-.238-.781-.758-1.562-1.019-2.343-.521-.758-.781-1.539-1.3-2.322-.26-.757-.758-1.539-1.017-2.32a8.773,8.773,0,0,1-1.043-2.322c-.521-.781-.781-1.539-1.279-2.32-.521-.781-.781-1.539-1.3-2.32a9.076,9.076,0,0,0-1.041-2.322,10.35,10.35,0,0,1-1.019-2.322,20.221,20.221,0,0,1-1.3-2.32c-.26-.781-.758-1.3-1.017-2.084-.521-.757-.781-1.539-1.3-2.322a9.93,9.93,0,0,0-1.019-2.32,15.093,15.093,0,0,0-1.041-2.06,9.145,9.145,0,0,1-1.043-2.322c-.5-.781-.758-1.562-1.279-2.32-.26-.781-.781-1.3-1.041-2.084-.5-.758-.758-1.54-1.279-2.322a15.335,15.335,0,0,0-1.043-2.06c-.26-.781-.781-1.539-1.017-2.32-.262-.783-.783-1.3-1.043-2.06-.781-1.564-1.539-2.843-2.32-4.405a8.063,8.063,0,0,0-1.043-2.06c-.26-.757-.781-1.54-1.019-2.322a15.188,15.188,0,0,0-1.041-2.06,16.865,16.865,0,0,1-1.043-2.06c-.26-.26-.26-.521-.5-.781H584.879c-2.32,0-4.641-.26-6.961-.26H570.7a62.583,62.583,0,0,1-6.986-.262c-7.223,0-14.184,0-21.406-.26H528.1c-2.322,0-4.641-.262-7.223-.262h-7.246c-2.32,0-4.641-.26-6.961-.26h-7.223a69.523,69.523,0,0,1-7.246-.262ZM138.771,62.231c0,2.06.26,4.382.26,6.442a12.36,12.36,0,0,0,.262,3.1v3.362c0,1.041.26,2.058.26,3.1a13.6,13.6,0,0,0,.262,3.362,14.483,14.483,0,0,0,.26,3.339v6.725a14.822,14.822,0,0,1,.236,3.362c0,1.019.262,2.322.262,3.339,0,2.322.26,4.665.26,6.987a14.482,14.482,0,0,0,.26,3.339,15.729,15.729,0,0,0,.262,3.622v3.624a15.626,15.626,0,0,1,.26,3.6c0,1.3.262,2.322.262,3.624v3.622c0,1.279.26,2.581.26,3.6,0,1.3.26,2.581.26,3.884v3.6c0,1.3.238,2.581.238,3.884.26,3.858.521,7.482.521,11.366.26,1.279.26,2.581.52,3.86a22.078,22.078,0,0,0,0,4.144c0,1.279.262,2.581.262,3.858,0,1.3.26,2.581.26,3.884v4.122c.262,1.3.262,2.841.521,4.12v4.144a21.96,21.96,0,0,1,.26,4.12c0,1.3.262,2.843.262,4.144a22.66,22.66,0,0,0,.236,4.122v4.4a24.809,24.809,0,0,1,.26,4.382,23.222,23.222,0,0,1,.262,4.382c0,1.3.26,2.841.26,4.144,0,1.8.262,3.6.262,5.422h8.264a14.558,14.558,0,0,0,3.362,0,8.391,8.391,0,0,0,3.6,0,15.849,15.849,0,0,0,3.362.26h20.128a27.908,27.908,0,0,0,4.665.262h20.909a19.822,19.822,0,0,0,3.6.236h24.533a14.68,14.68,0,0,0,3.362.26h4.641a1.892,1.892,0,0,0-.262-1.017,22.6,22.6,0,0,0-.52-4.144c-.238-1.539-.5-3.1-.759-4.382,0-1.562-.52-2.841-.52-4.382-.262-1.3-.521-2.841-.783-4.4a25.492,25.492,0,0,0-.52-4.12c-.238-1.3-.5-2.841-.757-4.145-.262-1.539-.262-2.841-.521-4.38a19.557,19.557,0,0,1-.521-3.884c-.26-1.539-.521-2.817-.781-4.12a25.1,25.1,0,0,1-.5-4.12c-.26-1.3-.521-2.581-.781-4.145a19.656,19.656,0,0,0-.521-3.858,19.947,19.947,0,0,1-.521-3.884c-.26-1.279-.519-2.581-.757-3.86a19.556,19.556,0,0,0-.521-3.884,19.453,19.453,0,0,0-.52-3.86,19.948,19.948,0,0,0-.521-3.884,19.772,19.772,0,0,1-.521-3.884c-.26-1.277-.5-2.32-.757-3.6a19.929,19.929,0,0,0-.521-3.884,19.875,19.875,0,0,0-.521-3.6,20.249,20.249,0,0,1-.52-3.624,19.78,19.78,0,0,1-.521-3.622c-.262-1.279-.5-2.581-.757-3.6a17.428,17.428,0,0,0-.521-3.622,17.622,17.622,0,0,0-.521-3.622,19.869,19.869,0,0,0-.521-3.6,15.093,15.093,0,0,0-.52-3.362c0-1.019-.238-2.32-.238-3.362-.26-1.279-.521-2.32-.781-3.6-.26-1.043-.26-2.322-.521-3.362a14.963,14.963,0,0,0-.521-3.362c0-1.019-.26-2.322-.26-3.341-.26-1.041-.5-2.343-.758-3.362,0-1.041-.262-2.06-.262-3.1a17.765,17.765,0,0,1-.52-3.362c-.521-2.322-.781-4.382-1.043-6.442-.26-1.3-.26-2.084-.5-3.362a12.908,12.908,0,0,1-.52-3.1,17.779,17.779,0,0,0-.521-3.362c-.262-1.017-.262-1.8-.521-3.077,0-1.043-.26-2.085-.26-3.1a10.857,10.857,0,0,1-.521-2.841,14.068,14.068,0,0,1-.5-3.1c-.26-1.041-.26-2.06-.521-3.1,0-1.041-.26-2.06-.26-3.1a12.734,12.734,0,0,1-.521-3.1c-.26-.758-.26-1.8-.521-2.817-.26-1.043-.26-2.084-.52-3.1,0-.781-.238-1.822-.238-2.841-.26-1.043-.26-2.06-.521-2.841,0-1.043-.26-2.06-.26-3.1-.26-.781-.26-1.8-.521-2.841s-.26-1.8-.521-2.841c0-.783-.26-1.8-.26-2.843a44.236,44.236,0,0,0-1.017-5.684c0-.756-.262-1.8-.262-2.841-.26-.758-.26-1.8-.521-2.581,0-1.017-.26-1.8-.26-2.817-.26-1.041-.26-1.822-.521-2.841V1.823h-9.021a11.538,11.538,0,0,0-2.843-.26h-8.523A8.664,8.664,0,0,1,191.7,1.3h-5.684a8.728,8.728,0,0,1-2.581-.26,5.276,5.276,0,0,1-2.841,0H169.484A8.645,8.645,0,0,0,166.9.782h-5.659C160.2.782,159.42.52,158.4.52h-5.684a8.651,8.651,0,0,1-2.581-.26,10.349,10.349,0,0,1-2.841,0h-5.684A8.676,8.676,0,0,1,139.031,0h-3.882c0,.262.26.262.26.521V3.363c0,.781.26,1.822.26,2.58a9.574,9.574,0,0,0,.262,2.843v2.841c0,1.043.26,2.06.26,2.841v2.841c0,1.043.262,1.8.262,2.843v2.841c0,1.017.26,2.06.26,2.841v3.1a10.364,10.364,0,0,1,.26,2.817,11.555,11.555,0,0,1,.262,2.843,13.64,13.64,0,0,0,.236,3.1,12.53,12.53,0,0,0,.26,3.1v2.841a12.446,12.446,0,0,0,.262,3.1v3.1c0,1.019.26,2.06.26,3.079a12.356,12.356,0,0,0,.262,3.1v3.1a12.53,12.53,0,0,1,.26,3.1" transform="translate(110.358 -0.001)" fill="#1f1a17" fill-rule="evenodd"/>
    </g>
  </g>
</svg>
